<?xml version="1.0" standalone="no"?>
<!DOCTYPE svg PUBLIC "-//W3C//DTD SVG 20010904//EN"
 "http://www.w3.org/TR/2001/REC-SVG-20010904/DTD/svg10.dtd">
<svg version="1.0" xmlns="http://www.w3.org/2000/svg"
 width="600.000000pt" height="600.000000pt" viewBox="0 0 600.000000 600.000000"
 preserveAspectRatio="xMidYMid meet">
<metadata>
Created by potrace 1.14, written by Peter Selinger 2001-2017
</metadata>
<g transform="translate(0.000000,600.000000) scale(0.100000,-0.100000)"
fill="#000000" stroke="none">
<path d="M1 4948 c1 -581 5 -1035 9 -1013 13 61 204 510 234 549 50 66 180
136 252 136 23 0 298 -70 555 -141 42 -12 86 -18 97 -15 24 8 369 359 383 390
8 16 -8 90 -65 311 -42 161 -76 311 -76 337 0 79 35 155 104 224 59 59 67 63
306 161 135 56 256 103 270 106 14 2 -446 5 -1022 6 l-1048 1 1 -1052z"/>
<path d="M2183 5989 c58 -8 163 -57 191 -88 8 -9 80 -128 159 -266 80 -137
151 -258 159 -269 8 -11 34 -22 63 -27 60 -9 398 -11 473 -3 l52 7 86 146
c269 455 251 429 329 465 29 15 78 30 107 35 33 5 -278 9 -812 9 -513 0 -841
-4 -807 -9z"/>
<path d="M3926 5991 c17 -4 137 -52 268 -106 268 -111 308 -138 365 -245 56
-104 54 -124 -33 -455 -42 -160 -78 -295 -81 -301 -2 -7 22 -43 53 -80 80 -99
327 -344 346 -344 8 0 151 36 318 81 339 90 355 91 457 39 60 -30 133 -96 156
-139 7 -14 55 -127 106 -251 84 -204 93 -232 97 -302 5 -88 -12 -150 -58 -220
-26 -39 -63 -64 -299 -202 -149 -87 -276 -165 -283 -173 -15 -19 -25 -473 -11
-537 8 -38 12 -41 268 -191 143 -84 274 -164 291 -178 16 -14 43 -52 59 -84
27 -53 30 -67 30 -158 l0 -100 -101 -240 c-116 -275 -142 -313 -250 -366 -114
-57 -97 -59 -662 90 l-113 30 -57 -49 c-115 -97 -342 -344 -342 -373 0 -9 34
-149 76 -310 62 -239 75 -301 71 -343 -9 -89 -79 -200 -157 -248 -19 -13 -141
-66 -271 -119 -215 -88 -243 -97 -301 -97 -81 0 -152 21 -214 63 -44 29 -63
57 -209 307 -144 246 -164 276 -190 281 -39 9 -481 9 -520 0 -27 -5 -45 -32
-167 -236 -220 -371 -196 -338 -274 -376 -63 -31 -76 -34 -164 -34 l-95 0
-210 88 c-278 117 -289 123 -345 184 -55 60 -89 139 -91 210 -1 31 26 149 76
337 57 218 74 295 67 310 -25 56 -330 365 -387 393 -15 7 -91 -9 -315 -69
-332 -88 -366 -92 -465 -43 -104 51 -137 101 -252 381 -56 137 -104 260 -106
274 -2 14 -5 -451 -6 -1032 l-1 -1058 3000 0 3000 0 0 3000 0 3000 -1052 -1
c-579 -1 -1039 -4 -1022 -8z"/>
<path d="M2755 4496 c-425 -70 -781 -282 -1027 -611 -68 -92 -141 -211 -136
-225 2 -5 138 -168 303 -362 l300 -352 3 487 2 487 293 -2 292 -3 0 -990 0
-990 -277 -3 -276 -2 -402 465 c-221 256 -404 464 -406 462 -8 -8 18 -176 41
-272 145 -586 597 -1021 1205 -1157 91 -20 131 -23 305 -23 184 1 210 3 319
29 160 37 270 77 398 143 285 147 531 399 673 688 67 136 119 286 131 373 l7
52 -327 0 -326 0 0 -380 0 -380 -320 0 -320 0 0 995 0 995 320 0 320 0 0 -365
0 -365 330 0 c275 0 330 2 330 14 0 33 -60 248 -92 326 -80 200 -209 391 -370
545 -216 207 -470 342 -769 405 -130 28 -401 36 -524 16z"/>
<path d="M2 3010 c0 -470 4 -834 8 -809 10 59 39 125 73 165 15 18 141 98 296
189 148 86 273 164 277 173 10 23 18 389 10 465 l-7 62 -77 52 c-42 28 -169
111 -282 185 -239 156 -267 187 -289 324 -5 27 -9 -328 -9 -806z"/>
</g>
</svg>
