<svg xmlns="http://www.w3.org/2000/svg" data-name="Layer 1" viewBox="0 0 100 100" x="0px" y="0px"><title>88all</title><circle cx="38.18" cy="27.39" r="6.39"></circle><path d="M48.58,46.68a.76.76,0,0,0,.76-.76v-.46a9.91,9.91,0,0,0-9.9-9.9H36.91a9.91,9.91,0,0,0-9.9,9.9v.46a.76.76,0,0,0,.76.76Z"></path><path d="M71.38,8.32H28.62a14,14,0,0,0-14,14V77.68a14,14,0,0,0,14,14H71.38a14,14,0,0,0,14-14V22.32A14,14,0,0,0,71.38,8.32Zm6,69.35a6,6,0,0,1-6,6H28.62a6,6,0,0,1-6-6V22.32a6,6,0,0,1,6-6H71.38a6,6,0,0,1,6,6Z"></path><path d="M69.65,26.69H55.4a4,4,0,0,0,0,8H69.65a4,4,0,0,0,0-8Z"></path><path d="M69.65,38.69H55.4a4,4,0,0,0,0,8H69.65a4,4,0,0,0,0-8Z"></path><path d="M69.65,56.69H31.4a4,4,0,1,0,0,8H69.65a4,4,0,0,0,0-8Z"></path><path d="M69.65,68.69H31.4a4,4,0,1,0,0,8H69.65a4,4,0,0,0,0-8Z"></path></svg>